<?xml version="1.0" standalone="no"?>
<!DOCTYPE svg PUBLIC "-//W3C//DTD SVG 20010904//EN"
 "http://www.w3.org/TR/2001/REC-SVG-20010904/DTD/svg10.dtd">
<svg version="1.0" xmlns="http://www.w3.org/2000/svg"
 width="940.000000pt" height="788.000000pt" viewBox="0 0 940.000000 788.000000"
 preserveAspectRatio="xMidYMid meet">

<g transform="translate(0.000000,788.000000) scale(0.100000,-0.100000)"
fill="#000000" stroke="none">
<path d="M3440 7835 l0 -45 -45 0 -45 0 0 -45 0 -45 -45 0 -45 0 0 -225 0
-225 85 0 85 0 0 90 0 90 140 0 140 0 0 -90 0 -90 85 0 85 0 0 225 0 225 -45
0 -45 0 0 45 0 45 -45 0 -45 0 0 45 0 45 -130 0 -130 0 0 -45z m180 -90 l0
-45 45 0 45 0 0 -90 0 -90 -140 0 -140 0 0 90 0 90 45 0 45 0 0 45 0 45 50 0
50 0 0 -45z"/>
<path d="M4070 7565 l0 -315 265 0 265 0 0 45 0 45 -180 0 -180 0 0 270 0 270
-85 0 -85 0 0 -315z"/>
<path d="M4700 7565 l0 -315 310 0 310 0 0 45 0 45 -225 0 -225 0 0 90 0 90
180 0 180 0 0 45 0 45 -180 0 -180 0 0 90 0 90 225 0 225 0 0 45 0 45 -310 0
-310 0 0 -315z"/>
<path d="M5420 7790 l0 -90 45 0 45 0 0 -45 0 -45 45 0 45 0 0 -45 0 -45 -45
0 -45 0 0 -45 0 -45 -45 0 -45 0 0 -90 0 -90 85 0 85 0 0 90 0 90 45 0 45 0 0
45 0 45 50 0 50 0 0 -45 0 -45 45 0 45 0 0 -90 0 -90 85 0 85 0 0 90 0 90 -45
0 -45 0 0 45 0 45 -45 0 -45 0 0 45 0 45 45 0 45 0 0 45 0 45 45 0 45 0 0 90
0 90 -85 0 -85 0 0 -90 0 -90 -45 0 -45 0 0 -45 0 -45 -50 0 -50 0 0 45 0 45
-45 0 -45 0 0 90 0 90 -85 0 -85 0 0 -90z"/>
<path d="M1810 6215 l0 -335 -335 0 -335 0 0 -335 0 -335 -335 0 -335 0 0
-1675 0 -1675 675 0 675 0 0 670 0 670 1000 0 1000 0 0 -670 0 -670 675 0 675
0 0 1675 0 1675 -335 0 -335 0 0 335 0 335 -335 0 -335 0 0 335 0 335 -1010 0
-1010 0 0 -335z m1340 -670 l0 -335 335 0 335 0 0 -670 0 -670 -1000 0 -1000
0 0 670 0 670 335 0 335 0 0 335 0 335 330 0 330 0 0 -335z"/>
<path d="M5040 6215 l0 -335 670 0 670 0 0 -2010 0 -2010 675 0 675 0 0 2010
0 2010 670 0 670 0 0 335 0 335 -2015 0 -2015 0 0 -335z"/>
<path d="M5460 2110 l0 -250 253 2 252 3 3 248 2 247 -255 0 -255 0 0 -250z"/>
<path d="M1170 675 l0 -45 90 0 90 0 0 -270 0 -270 90 0 90 0 0 270 0 270 90
0 90 0 0 45 0 45 -270 0 -270 0 0 -45z"/>
<path d="M1800 450 l0 -270 45 0 45 0 0 -45 0 -45 225 0 225 0 0 45 0 45 45 0
45 0 0 270 0 270 -90 0 -90 0 0 -270 0 -270 -135 0 -135 0 0 270 0 270 -90 0
-90 0 0 -270z"/>
<path d="M2520 405 l0 -315 90 0 90 0 0 180 0 180 45 0 45 0 0 -90 0 -90 45 0
45 0 0 90 0 90 45 0 45 0 0 -180 0 -180 90 0 90 0 0 315 0 315 -90 0 -90 0 0
-45 0 -45 -45 0 -45 0 0 -45 0 -45 -45 0 -45 0 0 45 0 45 -45 0 -45 0 0 45 0
45 -90 0 -90 0 0 -315z"/>
<path d="M3240 405 l0 -315 315 0 315 0 0 45 0 45 -225 0 -225 0 0 90 0 90
180 0 180 0 0 45 0 45 -180 0 -180 0 0 90 0 90 225 0 225 0 0 45 0 45 -315 0
-315 0 0 -315z"/>
<path d="M4050 405 l0 -315 270 0 270 0 0 45 0 45 -180 0 -180 0 0 270 0 270
-90 0 -90 0 0 -315z"/>
<path d="M4680 405 l0 -315 315 0 315 0 0 45 0 45 -225 0 -225 0 0 90 0 90
180 0 180 0 0 45 0 45 -180 0 -180 0 0 90 0 90 225 0 225 0 0 45 0 45 -315 0
-315 0 0 -315z"/>
<path d="M5400 540 l0 -180 45 0 45 0 0 -45 0 -45 45 0 45 0 0 -45 0 -45 45 0
45 0 0 -45 0 -45 45 0 45 0 0 45 0 45 45 0 45 0 0 45 0 45 45 0 45 0 0 45 0
45 45 0 45 0 0 180 0 180 -90 0 -90 0 0 -135 0 -135 -45 0 -45 0 0 -45 0 -45
-45 0 -45 0 0 45 0 45 -45 0 -45 0 0 135 0 135 -90 0 -90 0 0 -180z"/>
<path d="M6210 675 l0 -45 90 0 90 0 0 -225 0 -225 -90 0 -90 0 0 -45 0 -45
270 0 270 0 0 45 0 45 -90 0 -90 0 0 225 0 225 90 0 90 0 0 45 0 45 -270 0
-270 0 0 -45z"/>
<path d="M7020 675 l0 -45 -45 0 -45 0 0 -45 0 -45 -45 0 -45 0 0 -135 0 -135
45 0 45 0 0 -45 0 -45 45 0 45 0 0 -45 0 -45 180 0 180 0 0 45 0 45 45 0 45 0
0 45 0 45 -90 0 -90 0 0 -45 0 -45 -90 0 -90 0 0 45 0 45 -45 0 -45 0 0 135 0
135 45 0 45 0 0 45 0 45 90 0 90 0 0 -45 0 -45 90 0 90 0 0 45 0 45 -45 0 -45
0 0 45 0 45 -180 0 -180 0 0 -45z"/>
<path d="M7560 405 l0 -315 90 0 90 0 0 135 0 135 135 0 135 0 0 -135 0 -135
90 0 90 0 0 315 0 315 -90 0 -90 0 0 -135 0 -135 -135 0 -135 0 0 135 0 135
-90 0 -90 0 0 -315z"/>
</g>
</svg>
